<svg width="512" height="76" enable-background="new 0 0 512.001 512.001" version="1.1" viewBox="0 0 512 76" xmlns="http://www.w3.org/2000/svg">
 <defs>
  <linearGradient id="linearGradient871" x1="46.927" x2="250.77" y1="117.12" y2="117.12" gradientTransform="matrix(2.3882 0 0 2.3882 -99.482 -241.71)" gradientUnits="userSpaceOnUse">
   <stop stop-color="#5558ff" offset="0"/>
   <stop stop-color="#00c0ff" offset="1"/>
  </linearGradient>
 </defs>
 <g fill="url(#linearGradient871)" stroke-width="2.3882" aria-label="CutefishOS">
  <path d="m45.261 12.446q-10.986 0-17.291 7.3558t-6.305 20.157q0 12.705 5.8273 20.157 5.9229 7.3558 17.673 7.3558 4.4899 0 8.5022-0.76424t7.8335-1.9106v7.4513q-3.8212 1.433-7.929 2.1017-4.0123 0.66871-9.6485 0.66871-10.413 0-17.386-4.2988t-10.508-12.228q-3.4391-7.929-3.4391-18.628 0-10.317 3.7257-18.151 3.8212-7.929 11.177-12.323 7.3558-4.4899 17.864-4.4899 10.795 0 18.819 4.0123l-3.4391 7.2603q-3.1525-1.433-7.0692-2.5793-3.8212-1.1464-8.4066-1.1464z"/>
  <path d="m118.06 22.858v51.204h-6.8782l-1.2419-6.7826h-0.38212q-2.4838 4.0123-6.8782 5.9229-4.3944 1.8151-9.3619 1.8151-9.2664 0-13.947-4.3944-4.681-4.4899-4.681-14.234v-33.531h8.5022v32.958q0 12.228 11.368 12.228 8.5022 0 11.75-4.7765 3.3436-4.7765 3.3436-13.756v-26.653z"/>
  <path d="m151.39 68.14q1.9106 0 3.9167-0.28659 2.0061-0.38212 3.248-0.76424v6.4005q-1.3374 0.66871-3.8212 1.0508-2.4838 0.47765-4.7765 0.47765-4.0123 0-7.4513-1.3374-3.3436-1.433-5.4452-4.872t-2.1017-9.6485v-29.805h-7.2603v-4.0123l7.3558-3.3436 3.3436-10.89h4.9676v11.75h14.807v6.496h-14.807v29.614q0 4.681 2.1972 6.9737 2.2927 2.1972 5.8273 2.1972z"/>
  <path d="m188.56 21.903q6.5916 0 11.273 2.8659 4.7765 2.8659 7.2603 8.12 2.5793 5.1586 2.5793 12.132v5.0631h-35.06q0.19106 8.6932 4.3944 13.279 4.2988 4.4899 11.941 4.4899 4.872 0 8.5977-0.85977 3.8212-0.9553 7.8335-2.6748v7.3558q-3.9167 1.7195-7.7379 2.4838-3.8212 0.85977-9.0754 0.85977-7.2603 0-12.897-2.9614-5.5407-2.9614-8.6932-8.7888-3.057-5.9229-3.057-14.425 0-8.4066 2.7704-14.425 2.8659-6.0184 7.929-9.2664 5.1586-3.248 11.941-3.248zm-0.0955 6.8782q-6.0184 0-9.553 3.9167-3.4391 3.8212-4.1078 10.699h26.08q-0.0955-6.496-3.057-10.508-2.9614-4.1078-9.3619-4.1078z"/>
  <path d="m246.26 29.355h-12.897v44.708h-8.4066v-44.708h-8.9798v-3.9167l8.9798-2.8659v-2.9614q0-9.9351 4.3944-14.234 4.3944-4.3944 12.228-4.3944 3.057 0 5.5407 0.57318 2.5793 0.47765 4.3944 1.1464l-2.1972 6.5916q-1.5285-0.47765-3.5346-0.9553t-4.1078-0.47765q-4.2033 0-6.305 2.8659-2.0061 2.7704-2.0061 8.7888v3.3436h12.897zm13.565-25.698q1.9106 0 3.3436 1.3374 1.5285 1.2419 1.5285 4.0123 0 2.6748-1.5285 4.0123-1.433 1.3374-3.3436 1.3374-2.1017 0-3.5346-1.3374t-1.433-4.0123q0-2.7704 1.433-4.0123 1.433-1.3374 3.5346-1.3374zm4.1078 19.202v51.204h-8.4066v-51.204z"/>
  <path d="m313.51 59.924q0 7.4513-5.5407 11.273t-14.903 3.8212q-5.3497 0-9.2664-0.85977-3.8212-0.85977-6.7826-2.3882v-7.6424q3.057 1.5285 7.3558 2.8659 4.3944 1.2419 8.8843 1.2419 6.4005 0 9.2664-2.0061 2.8659-2.1017 2.8659-5.5407 0-1.9106-1.0508-3.4391-1.0508-1.5285-3.8212-3.057-2.6748-1.5285-7.7379-3.4391-4.9676-1.9106-8.5022-3.8212t-5.4452-4.5854-1.9106-6.8782q0-6.496 5.2542-10.031 5.3497-3.5346 13.947-3.5346 4.681 0 8.6932 0.9553 4.1078 0.85977 7.6424 2.4838l-2.8659 6.6871q-3.248-1.3374-6.7826-2.2927t-7.2603-0.9553q-5.1586 0-7.929 1.7195-2.6748 1.624-2.6748 4.4899 0 2.1017 1.2419 3.6301 1.2419 1.433 4.1078 2.8659 2.9614 1.3374 7.8335 3.248 4.872 1.8151 8.3111 3.7257t5.2542 4.681q1.8151 2.6748 1.8151 6.7826z"/>
  <path d="m334.33 22.763q0 3.8212-0.47765 7.1648h0.57318q2.4838-3.9167 6.6871-5.9229 4.2988-2.0061 9.2664-2.0061 9.3619 0 14.043 4.4899 4.681 4.3944 4.681 14.234v33.34h-8.3111v-32.767q0-12.323-11.464-12.323-8.5977 0-11.846 4.872-3.1525 4.7765-3.1525 13.756v26.462h-8.4066v-72.603h8.4066z"/>
  <path d="m445.63 39.863q0 10.604-3.6301 18.533-3.5346 7.8335-10.508 12.228t-17.291 4.3944q-10.604 0-17.673-4.3944-6.9737-4.3944-10.413-12.323-3.4391-7.929-3.4391-18.533 0-10.508 3.4391-18.342t10.413-12.228q7.0692-4.3944 17.769-4.3944 10.222 0 17.195 4.3944 6.9737 4.2988 10.508 12.228 3.6301 7.8335 3.6301 18.437zm-53.879 0q0 12.897 5.4452 20.348 5.4452 7.3558 17.004 7.3558 11.655 0 17.004-7.3558 5.3497-7.4513 5.3497-20.348t-5.3497-20.157q-5.3497-7.3558-16.909-7.3558t-17.1 7.3558q-5.4452 7.2603-5.4452 20.157z"/>
  <path d="m499.41 55.816q0 9.0753-6.5916 14.138t-17.769 5.0631q-5.7318 0-10.604-0.85977t-8.12-2.3882v-8.2156q3.4391 1.5285 8.5022 2.7704 5.1586 1.2419 10.604 1.2419 7.6424 0 11.464-2.9614 3.9167-2.9614 3.9167-8.0245 0-3.3436-1.433-5.6363t-4.9676-4.2033q-3.4391-2.0061-9.6485-4.2033-8.6932-3.1525-13.183-7.7379-4.3944-4.5854-4.3944-12.514 0-5.4452 2.7704-9.2664 2.7704-3.9167 7.6424-6.0184 4.9676-2.1017 11.368-2.1017 5.6363 0 10.317 1.0508t8.5022 2.7704l-2.6748 7.3558q-3.5346-1.5285-7.7379-2.5793-4.1078-1.0508-8.5977-1.0508-6.4005 0-9.6485 2.7704-3.248 2.6748-3.248 7.1648 0 3.4391 1.433 5.7318t4.681 4.1078 8.7888 3.9167q6.0184 2.1972 10.126 4.7765 4.2033 2.4838 6.305 6.0184 2.1972 3.5346 2.1972 8.8843z"/>
 </g>
</svg>
