<?xml version="1.0" encoding="UTF-8" standalone="no"?>
<svg
   xmlns:dc="http://purl.org/dc/elements/1.1/"
   xmlns:cc="http://creativecommons.org/ns#"
   xmlns:rdf="http://www.w3.org/1999/02/22-rdf-syntax-ns#"
   xmlns:svg="http://www.w3.org/2000/svg"
   xmlns="http://www.w3.org/2000/svg"
   xmlns:sodipodi="http://sodipodi.sourceforge.net/DTD/sodipodi-0.dtd"
   xmlns:inkscape="http://www.inkscape.org/namespaces/inkscape"
   id="Capa_1"
   enable-background="new 0 0 500.238 500.238"
   height="400"
   viewBox="0 0 390.81094 390.81094"
   width="400"
   version="1.1"
   sodipodi:docname="color-wheel.svg"
   inkscape:version="1.0.2 (e86c870879, 2021-01-15)">
  <metadata
     id="metadata44">
    <rdf:RDF>
      <cc:Work
         rdf:about="">
        <dc:format>image/svg+xml</dc:format>
        <dc:type
           rdf:resource="http://purl.org/dc/dcmitype/StillImage" />
        <dc:title></dc:title>
      </cc:Work>
    </rdf:RDF>
  </metadata>
  <defs
     id="defs42" />
  <sodipodi:namedview
     pagecolor="#ffffff"
     bordercolor="#666666"
     borderopacity="1"
     objecttolerance="10"
     gridtolerance="10"
     guidetolerance="10"
     inkscape:pageopacity="0"
     inkscape:pageshadow="2"
     inkscape:window-width="2160"
     inkscape:window-height="1258"
     id="namedview40"
     showgrid="false"
     inkscape:zoom="1.4355469"
     inkscape:cx="256"
     inkscape:cy="256"
     inkscape:window-x="0"
     inkscape:window-y="35"
     inkscape:window-maximized="1"
     inkscape:current-layer="Capa_1"
     inkscape:document-rotation="0" />
  <g
     id="g888"
     transform="matrix(0.58593809,0,0,0.58593809,48.851367,48.85113)">
    <path
       d="m 462.702,179.884 -25.827,-23.063 -52.623,20.224 -7.16,29.548 -27.519,124.838 89.36,38.929 11.089,-14.317 c 15.3,-31.38 23.88,-66.64 23.88,-103.91 0,-25.189 -3.94,-49.459 -11.2,-72.249 z"
       fill="#fe7d43"
       id="path2" />
    <g
       id="g27">
      <g
         id="XMLID_855_">
        <g
           id="g24">
          <path
             d="m 370.7,316.284 -31.362,15.148 -80.628,56.792 35.935,80.173 25.655,6.357 v 0.01 c 57.33,-21.32 103.462,-64.83 130.042,-119.38 z"
             fill="#ee6161"
             id="path4" />
          <path
             d="m 289.59,390.514 -17.107,-11.991 -102.233,-15.526 -49.118,78.911 22.609,28.476 v 0.01 c 28.76,12.37 60.45,19.22 93.74,19.22 29.13,0 57.03,-5.24 82.82,-14.85 v -0.01 z"
             fill="#c2a1d5"
             id="path6" />
          <path
             d="M 174.961,360.978 118.137,271.714 18.99,302.389 v 42.954 c 23.93,56.03 68.79,100.99 124.75,125.05 v -0.01 l 35.93,-82.16 z"
             fill="#8ac9fe"
             id="path8" />
          <path
             d="M 41.982,138.94 15.06,168.774 H 15.05 C 5.32,194.714 0,222.804 0,252.134 c 0,33.09 6.77,64.59 18.99,93.21 H 19 l 82.71,-34.64 10.814,-24.84 6.493,-122.186 z"
             fill="#75cdd5"
             id="path10" />
          <path
             d="M 181.916,38.284 H 134.08 c -54.62,26.46 -97.57,73.22 -119.03,130.49 h 0.01 l 83.75,32.02 54.76,-27.722 72.418,-65.143 z"
             fill="#6cf5c2"
             id="path12" />
          <path
             d="m 378.15,206.594 -4.387,-19.506 -54.061,13.706 -2.912,24.95 c 2.77,8.29 4.26,17.17 4.26,26.39 0,12.76 -2.86,24.84 -7.97,35.65 l 1.17,19.907 35.323,18.797 21.126,-10.204 c 9.36,-19.4 14.61,-41.16 14.61,-64.15 10e-4,-15.89 -2.519,-31.19 -7.159,-45.54 z"
             fill="#fd6930"
             id="path14" />
          <path
             d="m 313.08,287.784 c -9.13,19.33 -25.45,34.59 -45.51,42.33 l -7.711,14.505 16.073,41.16 13.658,4.735 c 35.63,-13.42 64.7,-40.19 81.11,-74.23 z"
             fill="#e94444"
             id="path16" />
          <path
             d="m 267.57,330.114 c -9.33,3.61 -19.48,5.59 -30.09,5.59 -11.36,0 -22.18,-2.26 -32.05,-6.38 l -16.865,1.828 -20.06,40.896 11.165,16.176 c 17.76,7.56 37.3,11.74 57.81,11.74 18.34,0 35.9,-3.34 52.11,-9.45 z"
             fill="#a274bf"
             id="path18" />
          <path
             d="m 161,285.864 -13.195,-9.541 -43.061,14.922 -3.034,19.459 c 15.03,34.81 43.05,62.68 77.96,77.52 l 25.76,-58.9 c -19.81,-8.22 -35.78,-23.87 -44.43,-43.46 z"
             fill="#26a6fe"
             id="path20" />
          <path
             d="m 351.33,43.684 c -33.8,-18.5 -72.6,-29.03 -113.85,-29.03 -37.07,0 -72.15,8.49 -103.4,23.63 l 38.51,81 38.259,17.158 120.38,20.38 35.027,-74.33 z"
             fill="#fee97d"
             id="path22" />
        </g>
      </g>
    </g>
    <path
       d="m 499.882,161.534 c 1.19,3.43 -0.71,7.16 -4.17,8.24 l -32.4,10.11 -61.37,19.15 c -13.72,-42.64 -43.5,-78.07 -82.24,-99.15 l 31.18,-56.2 16.5,-29.74 c 1.74,-3.15 5.74,-4.26 8.85,-2.45 57.36,33.25 101.73,86.42 123.65,150.04 z"
       fill="#fec165"
       id="path29" />
    <path
       d="m 153.91,252.134 c 0,-9.97 1.74,-19.53 4.95,-28.39 l -0.738,-34.835 H 122.287 L 98.81,200.794 c -5.92,15.99 -9.16,33.29 -9.16,51.34 0,20.81 4.3,40.61 12.06,58.57 L 161,285.864 c -4.56,-10.31 -7.09,-21.72 -7.09,-33.73 z"
       fill="#2abcc8"
       id="path31" />
    <path
       d="m 202.588,128.977 -29.999,-9.694 c -33.93,16.58 -60.56,45.79 -73.78,81.51 l 60.05,22.95 c 7.32,-20.26 22.24,-36.88 41.33,-46.41 v -0.01 l 13.756,-15.489 z"
       fill="#00f2a6"
       id="path33" />
    <path
       d="m 307.84,122.084 -0.013,-0.002 c -20.919,-11.339 -44.878,-17.778 -70.347,-17.778 -23.28,0 -45.3,5.38 -64.89,14.98 l 27.6,58.05 c 11.22,-5.6 23.89,-8.77 37.29,-8.77 14.16,0 27.49,3.52 39.17,9.74 l 21.032,1.035 20.579,-27.438 z"
       fill="#fedf30"
       id="path35" />
    <path
       d="m 401.942,199.034 -24.24,7.56 -60.912,19.15 c -6.81,-20.49 -21.686,-37.633 -40.486,-47.623 l 31.088,-56.037 12.31,-22.2 c 38.74,21.08 68.52,56.51 82.24,99.15 z"
       fill="#fdb441"
       id="path37" />
  </g>
</svg>
