<?xml version="1.0" encoding="UTF-8" standalone="no"?>
<svg
   xmlns:dc="http://purl.org/dc/elements/1.1/"
   xmlns:cc="http://creativecommons.org/ns#"
   xmlns:rdf="http://www.w3.org/1999/02/22-rdf-syntax-ns#"
   xmlns:svg="http://www.w3.org/2000/svg"
   xmlns="http://www.w3.org/2000/svg"
   xmlns:sodipodi="http://sodipodi.sourceforge.net/DTD/sodipodi-0.dtd"
   xmlns:inkscape="http://www.inkscape.org/namespaces/inkscape"
   id="Bold"
   enable-background="new 0 0 32 32"
   height="400"
   viewBox="0 0 25 25"
   width="400"
   version="1.1"
   sodipodi:docname="opensource.svg"
   inkscape:version="1.0.2 (e86c870879, 2021-01-15)">
  <metadata
     id="metadata11">
    <rdf:RDF>
      <cc:Work
         rdf:about="">
        <dc:format>image/svg+xml</dc:format>
        <dc:type
           rdf:resource="http://purl.org/dc/dcmitype/StillImage" />
        <dc:title></dc:title>
      </cc:Work>
    </rdf:RDF>
  </metadata>
  <defs
     id="defs9" />
  <sodipodi:namedview
     pagecolor="#ffffff"
     bordercolor="#666666"
     borderopacity="1"
     objecttolerance="10"
     gridtolerance="10"
     guidetolerance="10"
     inkscape:pageopacity="0"
     inkscape:pageshadow="2"
     inkscape:window-width="2160"
     inkscape:window-height="1258"
     id="namedview7"
     showgrid="false"
     inkscape:zoom="1.4355469"
     inkscape:cx="256"
     inkscape:cy="256"
     inkscape:window-x="0"
     inkscape:window-y="35"
     inkscape:window-maximized="1"
     inkscape:current-layer="Bold"
     inkscape:document-rotation="0" />
  <g
     id="g838"
     transform="matrix(0.5859375,0,0,0.5859375,3.125,3.125)">
    <path
       d="M 26,32 H 6 C 2.686,32 0,29.314 0,26 V 6 C 0,2.686 2.686,0 6,0 h 20 c 3.314,0 6,2.686 6,6 v 20 c 0,3.314 -2.686,6 -6,6 z"
       fill="#e3f8fa"
       id="path2" />
    <path
       d="m 16,8.333 c -4.411,0 -8,3.553 -8,7.919 0,3.257 2.063,6.224 5.132,7.381 0.264,0.104 0.57,-0.042 0.655,-0.315 l 1.5,-4.741 C 15.358,18.352 15.26,18.109 15.052,17.996 14.403,17.642 14,16.973 14,16.252 c 0,-1.092 0.897,-1.98 2,-1.98 1.103,0 2,0.888 2,1.98 0,0.721 -0.403,1.39 -1.052,1.745 -0.208,0.113 -0.307,0.356 -0.235,0.581 l 1.5,4.741 c 0.086,0.274 0.389,0.416 0.655,0.315 C 21.938,22.476 24,19.509 24,16.252 24,11.886 20.411,8.333 16,8.333 Z"
       fill="#26c6da"
       id="path4" />
  </g>
</svg>
