<?xml version="1.0" encoding="UTF-8" standalone="no"?>
<svg
   xmlns:dc="http://purl.org/dc/elements/1.1/"
   xmlns:cc="http://creativecommons.org/ns#"
   xmlns:rdf="http://www.w3.org/1999/02/22-rdf-syntax-ns#"
   xmlns:svg="http://www.w3.org/2000/svg"
   xmlns="http://www.w3.org/2000/svg"
   xmlns:sodipodi="http://sodipodi.sourceforge.net/DTD/sodipodi-0.dtd"
   xmlns:inkscape="http://www.inkscape.org/namespaces/inkscape"
   id="Capa_1"
   enable-background="new 0 0 512 512"
   height="400"
   viewBox="0 0 400 400"
   width="400"
   version="1.1"
   sodipodi:docname="security.svg"
   inkscape:version="1.0.2 (e86c870879, 2021-01-15)">
  <metadata
     id="metadata29">
    <rdf:RDF>
      <cc:Work
         rdf:about="">
        <dc:format>image/svg+xml</dc:format>
        <dc:type
           rdf:resource="http://purl.org/dc/dcmitype/StillImage" />
        <dc:title></dc:title>
      </cc:Work>
    </rdf:RDF>
  </metadata>
  <defs
     id="defs27" />
  <sodipodi:namedview
     pagecolor="#ffffff"
     bordercolor="#666666"
     borderopacity="1"
     objecttolerance="10"
     gridtolerance="10"
     guidetolerance="10"
     inkscape:pageopacity="0"
     inkscape:pageshadow="2"
     inkscape:window-width="2160"
     inkscape:window-height="1258"
     id="namedview25"
     showgrid="false"
     inkscape:zoom="1.4355469"
     inkscape:cx="256"
     inkscape:cy="256"
     inkscape:window-x="0"
     inkscape:window-y="35"
     inkscape:window-maximized="1"
     inkscape:current-layer="Capa_1"
     inkscape:document-rotation="0" />
  <linearGradient
     id="SVGID_1_"
     gradientUnits="userSpaceOnUse"
     x1="256"
     x2="256"
     y1="512"
     y2="0">
    <stop
       offset="0"
       stop-color="#c3ffe8"
       id="stop2" />
    <stop
       offset=".9973"
       stop-color="#f0fff4"
       id="stop4" />
  </linearGradient>
  <linearGradient
     id="SVGID_2_"
     gradientUnits="userSpaceOnUse"
     x1="256"
     x2="256"
     y1="105"
     y2="407">
    <stop
       offset="0"
       stop-color="#00b59c"
       id="stop7" />
    <stop
       offset="1"
       stop-color="#9cffac"
       id="stop9" />
  </linearGradient>
  <g
     id="g22"
     transform="matrix(0.5859375,0,0,0.5859375,50,50)">
    <g
       id="g14">
      <circle
         cx="256"
         cy="256"
         fill="url(#SVGID_1_)"
         r="256"
         id="circle12"
         style="fill:url(#SVGID_1_)" />
    </g>
    <g
       id="g20">
      <g
         id="g18">
        <path
           d="m 256,211.97 c -24.577,0 -44.574,19.998 -44.574,44.574 0,24.576 19.997,44.574 44.574,44.574 24.577,0 44.574,-19.997 44.574,-44.574 0,-24.577 -19.997,-44.574 -44.574,-44.574 z m 24.133,41.962 -26.745,26.745 c -1.741,1.741 -4.022,2.612 -6.303,2.612 -2.281,0 -4.562,-0.87 -6.303,-2.612 l -8.915,-8.915 c -3.482,-3.482 -3.482,-9.124 0,-12.606 3.482,-3.482 9.124,-3.482 12.606,0 l 2.612,2.612 20.441,-20.441 c 3.482,-3.482 9.124,-3.482 12.606,0 3.482,3.482 3.483,9.123 10e-4,12.605 z m 82.846,-100.431 c -49.345,0 -100.484,-45.741 -100.998,-46.202 -3.395,-3.064 -8.567,-3.064 -11.962,0 -0.514,0.461 -51.652,46.202 -100.998,46.202 -4.927,0 -8.915,3.987 -8.915,8.915 v 106.169 c 0,84.021 60.236,117.791 112.716,137.832 1.019,0.392 2.098,0.583 3.178,0.583 1.08,0 2.159,-0.191 3.178,-0.583 52.479,-20.041 112.716,-53.811 112.716,-137.832 V 162.416 c -0.001,-4.928 -3.988,-8.915 -8.915,-8.915 z M 256,318.948 c -34.406,0 -62.404,-27.998 -62.404,-62.404 0,-34.406 27.998,-62.404 62.404,-62.404 34.406,0 62.404,27.998 62.404,62.404 0,34.406 -27.998,62.404 -62.404,62.404 z"
           fill="url(#SVGID_2_)"
           id="path16"
           style="fill:url(#SVGID_2_)" />
      </g>
    </g>
  </g>
</svg>
